<?xml version="1.0" encoding="utf-8"?>
<svg version="1.1" xmlns:xlink="http://www.w3.org/1999/xlink" width="40px" height="40px" xmlns="http://www.w3.org/2000/svg">
  <defs>
    <filter x="112px" y="329px" width="40px" height="40px" filterUnits="userSpaceOnUse" id="filter163">
      <feOffset dx="1" dy="1" in="SourceAlpha" result="shadowOffsetInner" />
      <feGaussianBlur stdDeviation="2.5" in="shadowOffsetInner" result="shadowGaussian" />
      <feComposite in2="shadowGaussian" operator="atop" in="SourceAlpha" result="shadowComposite" />
      <feColorMatrix type="matrix" values="0 0 0 0 0  0 0 0 0 0  0 0 0 0 0  0 0 0 0.698039215686274 0  " in="shadowComposite" />
    </filter>
    <g id="widget164">
      <path d="M 131 333  C 139.4 333  146 339.6  146 348  C 146 356.4  139.4 363  131 363  C 122.6 363  116 356.4  116 348  C 116 339.6  122.6 333  131 333  Z " fill-rule="nonzero" fill="#009dd9" stroke="none" />
      <path d="M 131 333.5  C 139.12 333.5  145.5 339.88  145.5 348  C 145.5 356.12  139.12 362.5  131 362.5  C 122.88 362.5  116.5 356.12  116.5 348  C 116.5 339.88  122.88 333.5  131 333.5  Z " stroke-width="1" stroke="#ffffff" fill="none" />
    </g>
  </defs>
  <g transform="matrix(1 0 0 1 -112 -329 )">
    <use xlink:href="#widget164" filter="url(#filter163)" />
    <use xlink:href="#widget164" />
  </g>
</svg>