<?xml version="1.0" encoding="utf-8"?>
<svg version="1.1" xmlns:xlink="http://www.w3.org/1999/xlink" width="170px" height="170px" xmlns="http://www.w3.org/2000/svg">
  <g transform="matrix(1 0 0 1 0 -139 )">
    <path d="M 85 139  C 132.6 139  170 176.4  170 224  C 170 271.6  132.6 309  85 309  C 37.4 309  0 271.6  0 224  C 0 176.4  37.4 139  85 139  Z " fill-rule="nonzero" fill="#ffffff" stroke="none" />
    <path d="M 85 139.5  C 132.32 139.5  169.5 176.68  169.5 224  C 169.5 271.32  132.32 308.5  85 308.5  C 37.68 308.5  0.5 271.32  0.5 224  C 0.5 176.68  37.68 139.5  85 139.5  Z " stroke-width="1" stroke="#797979" fill="none" />
  </g>
</svg>