<?xml version="1.0" encoding="utf-8"?>
<svg version="1.1" xmlns:xlink="http://www.w3.org/1999/xlink" width="50px" height="30px" xmlns="http://www.w3.org/2000/svg">
  <g transform="matrix(1 0 0 1 -643 -600 )">
    <path d="M 9.58333333333333 20  C 9.86111111111111 20  10 20.1388888888889  10 20.4166666666667  L 10 22.9166666666667  C 10 23.1944444444444  9.86111111111111 23.3333333333333  9.58333333333333 23.3333333333333  L 7.08333333333333 23.3333333333333  C 6.80555555555556 23.3333333333333  6.66666666666667 23.1944444444444  6.66666666666667 22.9166666666667  L 6.66666666666667 20.4166666666667  C 6.66666666666667 20.1388888888889  6.80555555555556 20  7.08333333333333 20  L 9.58333333333333 20  Z M 12.9166666666667 13.3333333333333  C 13.1944444444444 13.3333333333333  13.3333333333333 13.4722222222222  13.3333333333333 13.75  L 13.3333333333333 16.25  C 13.3333333333333 16.5277777777778  13.1944444444444 16.6666666666667  12.9166666666667 16.6666666666667  L 7.08333333333333 16.6666666666667  C 6.80555555555556 16.6666666666667  6.66666666666667 16.5277777777778  6.66666666666667 16.25  L 6.66666666666667 13.75  C 6.66666666666667 13.4722222222222  6.80555555555556 13.3333333333333  7.08333333333333 13.3333333333333  L 12.9166666666667 13.3333333333333  Z M 9.58333333333333 6.66666666666667  C 9.86111111111111 6.66666666666667  10 6.80555555555555  10 7.08333333333333  L 10 9.58333333333333  C 10 9.86111111111111  9.86111111111111 10  9.58333333333333 10  L 7.08333333333333 10  C 6.80555555555556 10  6.66666666666667 9.86111111111111  6.66666666666667 9.58333333333333  L 6.66666666666667 7.08333333333333  C 6.66666666666667 6.80555555555555  6.80555555555556 6.66666666666667  7.08333333333333 6.66666666666667  L 9.58333333333333 6.66666666666667  Z M 36.25 20  C 36.5277777777778 20  36.6666666666667 20.1388888888889  36.6666666666667 20.4166666666667  L 36.6666666666667 22.9166666666667  C 36.6666666666667 23.1944444444444  36.5277777777778 23.3333333333333  36.25 23  L 13.75 23  C 13.4722222222222 23.3333333333333  13.3333333333333 23.1944444444444  13.3333333333333 22.9166666666667  L 13.3333333333333 20.4166666666667  C 13.3333333333333 20.1388888888889  13.4722222222222 20  13.75 20  L 36.25 20  Z M 19.5833333333333 13.3333333333333  C 19.8611111111111 13.3333333333333  20 13.4722222222222  20 13.75  L 20 16.25  C 20 16.5277777777778  19.8611111111111 16.6666666666667  19.5833333333333 16.6666666666667  L 17.0833333333333 16.6666666666667  C 16.8055555555556 16.6666666666667  16.6666666666667 16.5277777777778  16.6666666666667 16.25  L 16.6666666666667 13.75  C 16.6666666666667 13.4722222222222  16.8055555555556 13.3333333333333  17.0833333333333 13.3333333333333  L 19.5833333333333 13.3333333333333  Z M 16.25 6.66666666666667  C 16.5277777777778 6.66666666666667  16.6666666666667 6.80555555555555  16.6666666666667 7.08333333333333  L 16.6666666666667 9.58333333333333  C 16.6666666666667 9.86111111111111  16.5277777777778 10  16.25 10  L 13.75 10  C 13.4722222222222 10  13.3333333333333 9.86111111111111  13.3333333333333 9.58333333333333  L 13.3333333333333 7.08333333333333  C 13.3333333333333 6.80555555555555  13.4722222222222 6.66666666666667  13.75 6.66666666666667  L 16.25 6.66666666666667  Z M 26.25 13.3333333333333  C 26.5277777777778 13.3333333333333  26.6666666666667 13.4722222222222  26.6666666666667 13.75  L 26.6666666666667 16.25  C 26.6666666666667 16.5277777777778  26.5277777777778 16.6666666666667  26.25 16.6666666666667  L 23.75 16.6666666666667  C 23.4722222222222 16.6666666666667  23.3333333333333 16.5277777777778  23.3333333333333 16.25  L 23.3333333333333 13.75  C 23.3333333333333 13.4722222222222  23.4722222222222 13.3333333333333  23.75 13.3333333333333  L 26.25 13.3333333333333  Z M 22.9166666666667 6.66666666666667  C 23.1944444444444 6.66666666666667  23.3333333333333 6.80555555555555  23.3333333333333 7.08333333333333  L 23.3333333333333 9.58333333333333  C 23.3333333333333 9.86111111111111  23.1944444444444 10  22.9166666666667 10  L 20.4166666666667 10  C 20.1388888888889 10  20 9.86111111111111  20 9.58333333333333  L 20 7.08333333333333  C 20 6.80555555555555  20.1388888888889 6.66666666666667  20.4166666666667 6.66666666666667  L 22.9166666666667 6.66666666666667  Z M 32.9166666666667 13.3333333333333  C 33.1944444444444 13.3333333333333  33.3333333333333 13.4722222222222  33.3333333333333 13.75  L 33.3333333333333 16.25  C 33.3333333333333 16.5277777777778  33.1944444444444 16.6666666666667  32.9166666666667 16.6666666666667  L 30.4166666666667 16.6666666666667  C 30.1388888888889 16.6666666666667  30 16.5277777777778  30 16.25  L 30 13.75  C 30 13.4722222222222  30.1388888888889 13.3333333333333  30.4166666666667 13.3333333333333  L 32.9166666666667 13.3333333333333  Z M 42.9166666666667 20  C 43.1944444444444 20  43.3333333333333 20.1388888888889  43.3333333333333 20.4166666666667  L 43.3333333333333 22.9166666666667  C 43.3333333333333 23.1944444444444  43.1944444444444 23.3333333333333  42.9166666666667 23.3333333333333  L 40.4166666666667 23.3333333333333  C 40.1388888888889 23.3333333333333  40 23.1944444444444  40 22.9166666666667  L 40 20.4166666666667  C 40 20.1388888888889  40.1388888888889 20  40.4166666666667 20  L 42.9166666666667 20  Z M 29.5833333333333 6.66666666666667  C 29.8611111111111 6.66666666666667  30 6.80555555555555  30 7.08333333333333  L 30 9.58333333333333  C 30 9.86111111111111  29.8611111111111 10  29.5833333333333 10  L 27.0833333333333 10  C 26.8055555555556 10  26.6666666666667 9.86111111111111  26.6666666666667 9.58333333333333  L 26.6666666666667 7.08333333333333  C 26.6666666666667 6.80555555555555  26.8055555555556 6.66666666666667  27.0833333333333 6.66666666666667  L 29.5833333333333 6.66666666666667  Z M 36.25 6.66666666666667  C 36.5277777777778 6.66666666666667  36.6666666666667 6.80555555555555  36.6666666666667 7.08333333333333  L 36.6666666666667 9.58333333333333  C 36.6666666666667 9.86111111111111  36.5277777777778 10  36.25 10  L 33.75 10  C 33.4722222222222 10  33.3333333333333 9.86111111111111  33.3333333333333 9.58333333333333  L 33.3333333333333 7.08333333333333  C 33.3333333333333 6.80555555555555  33.4722222222222 6.66666666666667  33.75 6.66666666666667  L 36.25 6.66666666666667  Z M 42.9166666666667 6.66666666666667  C 43.1944444444444 6.66666666666667  43.3333333333333 6.80555555555555  43.3333333333333 7.08333333333333  L 43.3333333333333 16.25  C 43.3333333333333 16.5277777777778  43.1944444444444 16.6666666666667  42.9166666666667 16.6666666666667  L 37.0833333333333 16.6666666666667  C 36.8055555555556 16.6666666666667  36.6666666666667 16.5277777777778  36.6666666666667 16.25  L 36.6666666666667 13.75  C 36.6666666666667 13.4722222222222  36.8055555555556 13.3333333333333  37.0833333333333 13.3333333333333  L 40 13.3333333333333  L 40 7.08333333333333  C 40 6.80555555555555  40.1388888888889 6.66666666666667  40.4166666666667 6.66666666666667  L 42.9166666666667 6.66666666666667  Z M 4 26.6666666666667  L 46 26.6666666666667  L 46 3.33333333333333  L 4 3.33333333333333  L 4 26.6666666666667  Z M 49.0234375 0.976562500000001  C 49.6744791666667 1.62760416666667  50 2.41319444444444  50 3.33333333333333  L 50 26.6666666666667  C 50 27.5868055555556  49.6744791666667 28.3723958333333  49.0234375 29.0234375  C 48.3723958333333 29.6744791666667  47.5868055555556 30  46.6666666666667 30  L 3.33333333333333 30  C 2.41319444444444 30  1.62760416666667 29.6744791666667  0.9765625 29.0234375  C 0.325520833333333 28.3723958333333  0 27.5868055555556  0 26.6666666666667  L 0 3.33333333333333  C 0 2.41319444444444  0.325520833333333 1.62760416666667  0.9765625 0.976562500000001  C 1.62760416666667 0.325520833333333  2.41319444444444 0  3.33333333333333 0  L 46.6666666666667 0  C 47.5868055555556 0  48.3723958333333 0.325520833333333  49.0234375 0.976562500000001  Z " fill-rule="nonzero" fill="#000000" stroke="none" transform="matrix(1 0 0 1 643 600 )" />
  </g>
</svg>